<svg xmlns="http://www.w3.org/2000/svg" viewBox="0 0 512 512">
  <rect width="512" height="512" rx="116" fill="#7c3aed"/>
  <path d="M118 208 103 91l113 69c26-8 54-8 80 0l113-69-15 117c25 31 39 72 39 116 0 101-79 147-177 147S79 425 79 324c0-44 14-85 39-116Z" fill="#fb923c"/>
  <path d="m127 126 18 73 52-30Z" fill="#f9a8d4"/>
  <path d="m385 126-18 73-52-30Z" fill="#f9a8d4"/>
  <ellipse cx="185" cy="292" rx="34" ry="43" fill="#fff"/>
  <ellipse cx="327" cy="292" rx="34" ry="43" fill="#fff"/>
  <ellipse cx="191" cy="300" rx="15" ry="24" fill="#312e5b"/>
  <ellipse cx="321" cy="300" rx="15" ry="24" fill="#312e5b"/>
  <circle cx="196" cy="291" r="5" fill="#fff"/>
  <circle cx="326" cy="291" r="5" fill="#fff"/>
  <path d="m256 335-22-1 22 24 22-24Z" fill="#be185d"/>
  <path d="M256 357c-4 33-39 31-49 12m49-12c4 33 39 31 49 12" fill="none" stroke="#7c2d12" stroke-width="12" stroke-linecap="round"/>
  <path d="M153 354 71 335m85 46-88 5m291-32 82-19m-85 46 88 5" fill="none" stroke="#7c2d12" stroke-width="9" stroke-linecap="round" opacity=".6"/>
</svg>
